<svg id="fond_ocean" data-name="fond ocean" xmlns="http://www.w3.org/2000/svg" viewBox="0 0 489.65 1129.5"><defs><style>.cls-1{fill:#6f8fc9;}</style></defs><path class="cls-1" d="M658.78,596.11c-7.31-7.45-14.88-14.69-22.79-21.51-5.54-4.78-11.21-10.49-17.85-12.69C607.77,558.45,605.25,551,603,542.05c-4.75-18.69-3.72-37.88-5.11-56.81-1.36-18.73-3.21-37.31-7.64-55.5-2.31-9.49-7-18.4-9.23-27.9-3.69-15.79-6.75-31.76-9.12-47.8-1.42-9.65-2.63-19.82-1.14-29.32,3.51-22.47,4-44.72-1.41-66.75-3.09-12.65-9.09-23.86-20.29-32-10.77-7.85-22.92-11.64-35.38-15-18.74-5-36.89-11.42-54.14-20.42A14,14,0,0,1,451.59,178c-.34-8.22-1.41-16.62,3.1-24.38a34,34,0,0,0,3.89-10.31c.91-4.5,2.37-7.6,7.1-9.59a10.12,10.12,0,0,0,6.19-10.48,55.71,55.71,0,0,1,.09-10.17c.64-5.63-1.81-8.55-7.46-8.75.57-10.12,2.25-19.71,1.42-29.07-1.93-21.85-6.64-31.88-25.66-39.82-13.1-5.47-26.82-5.63-40.62-1.39C371.8,42.63,369.05,59.67,369,83.94c0,6.08,1,12.16,1.49,17.76-3,2.17-5.81,3.33-7.15,5.45-3.38,5.34-.07,21.72,5.55,25.61,4.17,2.88,6.13,6.43,7.51,11,1.16,3.8,3.08,7.36,4.55,11.07,3.9,9.89,3,19.92.34,29.85-.47,1.72-2.47,3.48-4.21,4.34-7.94,4-15.83,8.18-24.13,11.22-15.82,5.8-31.88,10.92-47.88,16.21-18.46,6.11-31.19,18.48-37.88,36.46-6.21,16.68-7.05,34.34-5.71,51.91,1.11,14.62,4.3,29.06,1.62,43.88s-4,29.77-7.17,44.41c-2.17,10.11-6.58,19.73-9.7,29.67-8.45,27-9.78,54.93-10.69,82.84a203.8,203.8,0,0,1-5.46,42.82c-1.56,6.29-4.82,10-10.25,11.8-11,3.68-18.86,11.24-26.24,19.66-3,3.43-6.49,6.44-9.61,9.77-4.05,4.34-10.18,7-11.69,13.77,4.49,4.67,9.47,4.85,14.34,1.87,3.58-2.19,6.55-5.37,9.85-8,2.32-1.88,4.74-3.62,7.12-5.42l1.83,1.44c-1,5-1.69,10.06-3,15-3.39,12.12-7.06,24.16-10.66,36.23-1.66,5.53-1.14,10.16,5.19,13.38,7.77-9,8-20.91,14-30.35a179.42,179.42,0,0,1-6.29,25.57c-2.55,7.9-1.79,13,3.89,17.09l6.77-8.81c1.94,1.8,3.84,4.92,5.61,4.84,2.14-.09,4.89-2.49,6.06-4.62,1.56-2.86,1.72-6.46,2.73-9.67s2.28-6.16,3.44-9.23V652c6.31,3,8-.64,9-4.26,3.28-11.15,6.54-22.31,9.32-33.59,1.75-7.12,2.57-14.46,3.89-21.69,2.7-14.73,4.16-29.85,8.46-44.11,9.9-32.89,21.58-65.25,31.69-98.09,3.3-10.72,5.61-22.26,5.5-33.4-.26-25.45,10.74-47.41,19-72.92,2.76,4.52,4.88,7,5.93,9.87,2.52,6.9,4.82,13.92,6.74,21a132.57,132.57,0,0,1,2.54,59.35c-2.74,14.75-6.36,29.34-9,44.1-4.18,23.19-8.34,46.4-11.63,69.72-2.45,17.29-4.51,34.74-4.92,52.16-.49,21.2.5,42.47,1.86,63.64.33,5.25-.88,11.82,4.34,16.13-.06,2.09-.13,4.18-.19,6.27l.49-.14-.49.14c0,2.71-.2,5.43.07,8.11.8,8.25,1.92,16.47,2.68,24.72,1.42,15.59,1.8,31.34,4.28,46.76,2.17,13.52.53,26.25-3,39.08-5.25,19.3-9.83,38.62-8.81,58.95C312,886.86,312,910,313.16,933c.69,13.45,2.95,26.81,4,40.25,1.21,15,2.3,30,2.66,45.07.23,9.8-1.2,19.63-1.39,29.46-.32,16.15-2.07,31.89-10,46.4-.94,1.73-.71,4.1-1,6.18a4.85,4.85,0,0,1-.77,1.19l-1.47,2.07h0c-4.85,1.68-5.95,5.26-5,9.88L290.39,1126l.11-.09-3.55,3.65-.42.45a1.05,1.05,0,0,0-.3.15.68.68,0,0,0-.28.5,1.27,1.27,0,0,0,0,.33c-4.2,2.55-4,6.69-1.6,9.51,8,9.54,16.13,19.31,30.8,17.13,1.35-.2,2.87.82,4.31,1.26,9.85,3.07,15.95.59,19.79-9,3.76-9.39,7.32-18.85,6.91-29.4a35.1,35.1,0,0,1,7-23.29,20.89,20.89,0,0,0,3.72-11c.92-20.29.95-40.63,2.12-60.91.75-12.82,2.65-25.61,4.58-38.32,3.79-24.84,8.24-49.57,11.87-74.42,1.95-13.35,2.66-26.87,4.13-40.29,1.59-14.62,4.06-29.18,4.93-43.84a170.19,170.19,0,0,1,7.25-40.64c10.93-35.13,15.45-71.25,17.09-107.86.54-12.28,1.18-24.56,2-36.83a32.44,32.44,0,0,1,2.13-9.86,6.72,6.72,0,0,1,4.59-3.46c1.16-.18,3.42,1.75,3.89,3.16a45.28,45.28,0,0,1,2.16,10.8c1.35,18.38,2.73,36.76,3.66,55.16A344.81,344.81,0,0,0,438,768.72c5.57,21.38,11.33,42.67,13.37,64.77,2.34,25.36,4.34,50.77,7.59,76,3.43,26.73,8.43,53.24,12.21,79.93,2.58,18.2,4.82,36.5,6.09,54.84,1,14.13,0,28.38.37,42.57a19.94,19.94,0,0,0,3.27,10c4.75,7.08,8.18,14.22,7.69,23.12-.63,11.35,3.14,21.82,8.23,31.76,4.29,8.36,8.89,10.19,18.08,8a21.52,21.52,0,0,1,5.43-.78c13.88.36,22.89-7.88,30.53-17.85,4.24-5.52,1.42-12.1-5.44-14.81l0-.07c-1.1-2.74-1.85-5.68-3.35-8.17-6.2-10.26-12.7-20.32-19-30.54-7.28-11.92-6.13-25.62-6.68-38.55-1.39-32.29-1-64.62,3.37-96.77,1.19-8.81,1.68-17.73,2.17-26.62,1.13-20.56,3.14-41.16,2.79-61.71a215.93,215.93,0,0,0-9.7-60.68c-3.09-10-5.51-20.15-4.19-30.85,1.9-15.52,3.45-31.08,5.22-46.61,1.67-14.62,3.57-29.22,5.11-43.86s3.52-29.3,4-44c.8-25.23.32-50.45-3.24-75.55-2-14-2.09-28.22-4.57-42.07-3.84-21.4-9.1-42.54-13.56-63.83-2.26-10.8-4.95-21.61-6-32.55-2.45-26.35,4.06-51.21,14.38-75.24a31.82,31.82,0,0,0,1.06-3.61l2.6,1.4c4.46,13.6,9.33,27.09,13.24,40.85,2.15,7.59,2.68,15.63,4,23.47,2.37,14.48,3.32,29.38,7.42,43.36,9.16,31.2,20.34,61.8,29.77,92.92,4.15,13.71,6,28.11,9,42.19,3.87,18.58,7.5,37.22,11.78,55.71,1.74,7.51,5,8.76,13.21,7,1.55,3.83,2.68,8,4.83,11.56,2.93,4.87,7.32,3,11.18.89a18.56,18.56,0,0,0,3.12,2.64c2.05,1,5.45,3,6.13,2.39a12.07,12.07,0,0,0,3.07-7c.25-2.31-.69-4.81-1.41-7.13-1.64-5.29-3.63-10.46-5.12-15.78-.49-1.79.11-3.88.2-5.83,4.83,8.24,5.87,17.34,12.39,23.9,5.81-4.5,6.36-9.4,3.6-18-4-12.52-7.66-25.15-11.09-37.83-.77-2.81,0-6,.11-9.08l3.2-1.58c2,2.73,3.52,6,6,8,3.77,3,8,6,12.52,7.42,2.44.78,5.89-1.61,8.88-2.57C660.92,601.35,660.61,598,658.78,596.11Z" transform="translate(-172.27 -31.11)"/></svg>