<svg id="Veines" xmlns="http://www.w3.org/2000/svg" viewBox="0 0 414.71 1044.23"><defs><style>.cls-1{fill:#b72c30;}.cls-2{fill:#5d6487;}.cls-3{fill:#f8b88f;}.cls-4{fill:#fefefe;}</style></defs><path class="cls-1" d="M506.55,290.26c-10.78,5.94-22.75,3.68-34.36,4.43-1.32,4.68,0,6.49,4.49,7.06a77.49,77.49,0,0,1,15.21,3.41c16.44,5.62,21.86,16.68,16.68,33.12-1,3.05-1.66,6.18-2.48,9.27l-1.89-.31c.79-4.45,1.48-8.92,2.4-13.34,2.14-10.3-1.53-17.3-12.06-21.22-.46,9.24-.91,18.19-1.43,28.68-4.33-6.82-2.92-13-2.39-18.69,1.2-12.95,1.49-13-11-14.95a39.38,39.38,0,0,0-5.79,0c-.69,4.44-1.05,8.69-2.06,12.79a47.47,47.47,0,0,1-4,11.2c-4.49,8.27-11.62,10.61-20.23,7.12-2.49-1-4.88-2.24-8.51-3.93-.87,17.48-1.7,33.92-2.52,50.36l-.13,7.64c-.47,3.27-1.08,6.53-1.36,9.82-.7,8.18-1.25,16.38-1.85,24.57l-.81,4.95-12.36,20.48,21.09,30.06,8.27,11.79,1.88,5.16,11.35,23.84c.52,7.89,2.13,15.41,7.25,21.76a6.48,6.48,0,0,1,.32,1.68c.78,6.28,1.21,12.63,2.42,18.82,1.15,5.83,3.57,11.19,1.49,17.59-1.08,3.29.8,7.55,1.35,11.38-.18,9.13.61,18.42-.8,27.36-1.63,10.35,1.49,18.42,7.91,25.89l5.44,2.83,4.56,9.79c-.4.35-.81.68-1.22,1l-2.86-1.44-5.29-3.42L473.75,641c-.86,4.89-1.31,7.26-1.69,9.65-2,12.64,4.56,23.07,8.78,34.11l5,8c5.34,18.95,4.26,38.36,4.64,57.74.14,7.42,3.12,14.79,4.1,22.42a50.57,50.57,0,0,1-8-25.8c-.32-7.39.43-14.81.24-22.21-.12-4.54-1.1-9.06-1.69-13.59-.46-3.84.19-8.18-4.44-10.21.5-11-6.46-19.28-9.93-28.89-1.77,13-3.65,25.86-3.67,38.7,0,13.65,1.71,27.31,2.68,41,.21,1.75.41,3.49.62,5.24q2.25,9.32,4.49,18.62c.33,1.66.67,3.31,1,5-.07,1.17-.15,2.35-.23,3.52q2.81,11.33,5.6,22.65c1.5,8,2.1,16.34,4.71,24,3.82,11.14,9.08,21.79,13.73,32.64.49,7.64.92,15.28,1.47,22.91.69,9.45,1.49,18.89,2.23,28.33l-.72.55c-1.06-2.42-2.85-4.78-3.07-7.28q-1.39-15.87-2-31.79c-.29-7.95-2.15-15.31-7.37-22v6l-1.58,20.54c0,17.14-.4,34.29.09,51.41.21,7.54,2.17,15,3.33,22.54-.87,4.89,1.4,8.25,5.29,10.82-.55,5.81,4.17,8.13,7.5,11.38l3.89,5.61,1.77,20.24-2.09.44c-.38-.92-.76-1.83-1.15-2.75-1.44-4.66,2.64-10.74-3.61-14.18.41-5.49-2.5-8.85-8.39-12.62,1,12.37,1.8,23.12,2.63,33.88l1.8,15.25c.62,7.28,1.31,14.57,1.8,21.87a10.42,10.42,0,0,1-1.47,5.91q-.43-8.07-.86-16.14c-3.57,6.55-4.4,13.33-2,20.24,2.56,7.47,5.42,14.83,8.06,22.27a8,8,0,0,1-.06,2.71l-.1.12c-.55.65-1.61,1.33-1.57,1.94.6,8.64-.95,16.81-3.71,25.06-2.15,6.46.74,9.53,7.84,10a35.68,35.68,0,0,0,8.2-.29c9.77-1.61,10.91-4.13,6.43-13.44l1.75-1.5q3.66,6.52,7.31,13l-1,1c-2.79-.86-3.25.6-2.86,2.9l-.63.51c-1.37-.25-2.75-.49-5.2-.91l5.72,17.15-.06.07-9.88-14.81-1.44.49q1.95,8.1,3.89,16.18l.12-.1c-2.31-4.09-5.05-8-6.81-12.32-1.45-3.55-3.24-5-7.74-3.54v16.76l-1.55.11q-1.37-9.13-2.72-18.27l-.94-.11c-.46,2.62-.91,5.23-1.36,7.85l-1.26.08c-.47-9.79-1-19.58-1.37-29.37a4.53,4.53,0,0,1,1-2.53c7.68-10.54-.11-19.78-2.82-29.54q-1.09,6.73-2.17,13.48l-.29.24-3.45-9c.13-.6.23-1.2.32-1.81,1-1.61,3-3.23,3-4.85,0-5.1-.74-10.19-1.18-15.29l2.07-19,0-29.55c-.14-3.31.12-6.72-.56-9.92-.59-2.72-2.26-5.21-3.45-7.81q-2.25-20.82-4.51-41.65-.64-9.51-1.31-19V894.56l-3-.47q-1.51,3.69-3,7.38c-5.55,3.24-2.66,7.85-2,12.13.79,5.08,1.49,10.17,2.24,15.26-5.45-10.63-6.38-22-5.25-33.63l4.53-4.55c2.15-1.78,5.91-3.37,6.13-5.36.56-5-.49-10.08-.9-15.14l-.54-7.72c-.13-8.2.58-16.53-.6-24.58-1.56-10.57-4.61-20.93-7.75-31.41-4.45,12.47,0,26.9-8.83,38.29-.38-.3-1.13-.65-1.09-.88,2.41-14.78,5.51-29.48,7.09-44.35.73-6.81-.81-14.12-2.51-20.9-6.58-26.25-8-52.88-6.68-79.74.25-5.2,1.07-10.37,1.66-15.84-7.2,5.31-10.34,12.16-10.56,22.89-.1,4.93.22,9.88-.09,14.79-.17,2.73-1.23,5.4-2.3,9.79,0-11.12.13-20.21,0-29.3-.16-8.3,3.7-15,8.67-20.89a24.31,24.31,0,0,0,5.73-14.19c1.62-19,2.87-38.06,4.17-57.1.08-1.14-.61-2.33-1-3.5l-.73-5.95q.84-3.68,1.66-7.35l-1.92-.61-5.34,12,.08-.1-4.11,7.53a33.74,33.74,0,0,0-5.35,20c.18,5.51-.08,11-.15,16.57q-1.64,5.54-3.28,11.07l-.66-.21c.32-10-.51-20.17,1.29-29.88s6.06-19.12,9.57-28.53c1.71-4.58,4.47-8.76,6.22-13.33,1.17-3.06,2.37-6.64,1.86-9.7-2-11.66-4.65-23.2-7.06-34.79-.84-2.57-1.69-5.14-2.53-7.71-1.77-9-5.28-16.85-13.4-21.92-18.44,21.13-21.68,20.46-20.94,39.94-3.52-6.69-3.45-12.36-.83-17.51,2.75-5.4,6.66-10.21,10-15.32,2.64-4,5.19-8.17,7.78-12.25,2.75-5.72,2.25-10.73-1.8-16-6.84-8.91-12.94-18.39-19.5-27.52-2.15-3-4.75-5.51-7.24-.12l-10.34,11.62q-2.36,5.28-4.7,10.55l-.54.74a6.1,6.1,0,0,0-1.05,1c-10,10.52-10.23,17.63-1.12,28.88,3.29,4,6.8,7.94,9.79,12.19,4.79,6.82,6.13,14.26,2,22.22a23.67,23.67,0,0,1,0-3.37c1.15-7.6-1.88-13.68-6.64-19.26-5.54-6.48-10.9-13.11-17.11-20.6-3.81,9.93-10,19.2-10.75,30.69l-2.27,5.36c-2.4,11.64-5.05,23.24-7,35-.46,2.73,1,6,2.22,8.74,2.48,5.64,5.45,11.05,8.09,16.62,5.19,11,8.35,22.2,7.95,34.69-.26,8.31,2.07,16.71,3.22,24.89a15.52,15.52,0,0,1-2.71-3.53c-4-9-4.11-18.46-4.3-28.09-.1-5.23-2.19-10.41-3.39-15.62l.08.1-1.89-3.81,0,.07-1.89-3.77,0,.06-1.88-3.75,0,0-1.92-3.74.05.07-3.69-10.13-1.74.56q.28,3.6.56,7.2c-.12,2.85-.25,5.7-.37,8.55,1.65,21.16,3.2,42.32,5.09,63.46.22,2.49,1.91,5.12,3.57,7.15,7.13,8.75,10.77,18.4,9.72,29.89-.6,6.58-.11,13.26-.11,20-3.37-5.28-3-11.4-2.54-17.56.79-10.75-1.44-20.46-8.54-27.53,0,15.8.24,32.08-.1,48.35-.17,8-1.42,15.91-2.17,23.87-.63,6.71-1.29,13.43-1.88,20.15-.35,4-.86,8-.82,11.92a93.08,93.08,0,0,0,1.06,12.57c.4,2.7,1.8,5.26,2.16,8,1.56,11.75,2.9,23.52,4.36,35.6-9.44-11.46-4.4-26.34-8.76-38.86-4.3,20.16-10.43,39.87-8.63,60.67-.14,2.56-.29,5.13-.44,7.69-.67,5.93-3.39,12.36,3.93,16.37l5.46,3.73c3.57,11.05,1.1,21.53-2.39,32.16-2.06,6.24-2.7,12.94-4.63,19.4V930.6c1.65-5.17,4-10.25,4.74-15.55.75-5.73,2.92-12.17-2.61-17.14l-3.75-5.19-1.68.75v24.45q.47,6.71.95,13.4c-3.55,18.87-7.66,37.67-7.45,57-1.14,2.63-2.81,5.18-3.29,7.93-.69,3.86-.49,7.87-.67,11.82l.09,19.1q1.14,9,2.29,18.07c.51,9.62,1.09,19.24,1.48,28.86.17,4,0,8-5,9.35l-.2-.2c3.07-6,2.3-11.82-1.7-19.35-2,9.13-4,16.71-5.17,24.43-.29,2,3.1,4.25,3.31,6.53.73,7.68,1,15.43,1,23.15,0,3.3-1.2,6.6-2.11,11.17-.52-4-.88-6.88-1.24-9.72l-1-.06-4.24,25.49-1.11-.14c.43-7.81.86-15.62,1.28-23.09-5.95-3-7.17.93-8.69,4.27-3,6.61-6,13.23-10.53,19.2l8.78-24-1.41-.41-14.12,18.08.05.06c3.16-6.43,6.33-12.86,10-20.3h-6.19l-.16-.13c-.08-.87-.16-1.73-.3-3.32L290.39,1126l9.86-12.43,5-9.88v0l1.48-2.08a4.85,4.85,0,0,0,.77-1.19l14.18-13.63c.32.32.62.66.91,1-2.57,3.69-4.91,7.58-7.78,11-3.28,3.93-9.57,7.78-6.62,12.77,1.95,3.3,8.88,4.65,13.73,5,10.46.77,13.13-3.7,9.9-13.62-1.49-4.58-2.8-9.65-2.35-14.32.82-8.55.24-17.16,3.95-25.67,2.92-6.73,2.59-15,3.12-22.59.11-1.66-2.28-3.5-3.52-5.25l.08.06q-.06-6-.13-12,1-6,2.09-12c.86-11.59,3.19-23.17.74-35.73-5.47,3.5-7.19,7.64-6.89,12.84-1.13,1.59-3,3.06-3.23,4.78-.58,3.62-.35,7.37-.45,11.07q-.71-9-1.39-18.06l3.92-7.48,7.44-11.24c7.71-2.38,5.16-8.86,5.64-14.13,6.1-25.7,4.94-51.82,4.47-77.89,0-.52-.61-1-.93-1.54,0-3.86.33-7.76-.08-11.58-.25-2.3-1.62-4.47-2.49-6.7-1.73,4.43-4.54,8.76-5,13.32-1.14,11.87-1.24,23.84-1.75,35.77l-.51,3.92-3.95,7.78c-.53-3.87.57-7.08.83-10.37,1.3-16.78,2.38-33.57,3.54-50.37l0,.08c.63-1.26,1.26-2.53,1.88-3.79l0,.08,3.32-5.16c.92-2.26,1.9-4.49,2.75-6.78,4.06-10.79,9.42-21.26,8.47-33.33q1.76-9.86,3.52-19.69l0-5.44q.18-10.89.35-21.79l2.37-9.47c.57-6,1.48-12.05,1.64-18.09.5-19.68.27-39.34-3-60.94-3,7.14-5.59,12.27-7.36,17.66-1.5,4.55-2.09,9.4-3.08,14.12l-5.2,10.34c0,10.76.15,21.52-.05,32.28-.19,9.86-3.29,18.94-7.94,28.65-.71-1.89-1.25-2.59-1.08-3,6.21-13.95,5.7-28.63,5.22-43.44-.24-7.27,1.16-14.61,1.95-21.9.46-4.23,1.19-8.42,1.8-12.62l4.19-6.1c2.94-7.07,6-14.1,8.78-21.22,3-7.59,2.16-15.08-.82-24l-10.39,16.31L337,661.66,326.92,677.1l-1.79-.94c2.94-5.48,5.92-10.94,8.81-16.44,1.23-2.35,2.29-4.79,3.43-7.19l5.65-2.79c5.46-6.34,9.89-13.34,9.86-22,0-10.66-.83-21.31-1.3-32,.08-2.44.17-4.87.25-7.31-.14-3.16-.28-6.31-.41-9.47,3-13,6.19-25.94,9.07-39,1-4.72,1.45-9.57,2.14-14.36l-.08.12c5.66-.7,3-5.17,3.69-8.14,2.23-4.28,4.39-8.58,6.68-12.82,4.58-8.46,9.23-16.88,13.85-25.32l0,0,3.94-6.17c3.24-3.92,6.66-7.7,9.67-11.78,3.21-4.34,8.64-8,5.2-14.92-.39-.79,2.29-3.11,3.55-4.73l4.83,3.65c5.52-5.82,10.17-11.35,9.63-19.45.62-1.78,1.23-3.56,1.85-5.33q.06-17,.13-33.94l.12-5.05c1.12-16.16,2.31-32.31,3.32-48.47.28-4.58-3.13-5.44-6.74-5.79-2-4.35-4-8.66-5.88-13.06-.68-1.64-.34-4-1.4-5.15-8.7-9.68-7.07-20.48-3.85-31.53l6.93-7.19,3.11-4.25c.72-3.47,1.27-7,2.21-10.39s.31-5.86-3-7.41l-3.78-3.26c-6-8.35-13.2-15-23.38-17.86l-5.68-2.17c-1.5-1-2.87-2.36-4.51-2.88-14.24-4.51-28.51-5.92-42.76.06-10,4.29-19.22,9.66-27.15,17.15-6.88,6.5-8,12.22-4.19,22.23l2.67,7.57c-.4.39-.79.79-1.18,1.19L307,268.87a39.5,39.5,0,0,0,0,4.61c1.36,9.31,2.78,18.61,4.19,27.91l-.65.56q-2.62-9.42-5.27-18.85L303,263.56c.26-2.84.53-5.69.79-8.53-9.4,16.18-13.13,33.72-14.84,51.73-.3,3.12,1.12,6.4,1.74,9.6l-.63,3.49-2.38-.05c.37,1.12.73,2.25,1.09,3.37l.39,8.94c-.22,3.67-.72,7.35-.59,11,.41,11.36,1.61,22.72,1.51,34.07a135.85,135.85,0,0,1-14,59.47c-5.84,11.93-12.08,24.28-11.13,38.42-.09,2.32-.17,4.63-.26,6.95q-1.9,9-3.79,17.91l.07-.13-1.87,7.56c.08,2,.17,4,.25,6.07-1.12,3.15-2.17,6.32-3.37,9.44C253,530.57,248.78,538,247.26,546c-3,15.48-8.83,30.6-7,46.83.23,2-.92,4.2-.94,6.31a99.07,99.07,0,0,0,.51,12.67c.78,6.43,2,12.81,3,19.22l-1.14.17-2.19-5.51c-.35-1.68-.69-3.37-1-5l-2.19-11-2.28.05q-1.69,8.17-3.4,16.33l-.66.07-.66-12.39L228,613.2q-2.94,6.33-5.87,12.65h0a4.91,4.91,0,0,1-.06-1.78c2.77-7.1,1.07-12.7-5.47-16.72l-.07-.07c-.68-13.44-.27-26.67,7.56-38.41,1.5-2.24,3.29-4.28,4.95-6.41l1.22,1-.84,5,.14-.13-2.67,2.06c-.37.94-.74,1.89-1.12,2.83-3.69,5.52-5.77,11.2-1.72,17.49-4.12,2.69-5.27,7.93-3.17,13.89,1.31,3.74,3.83,5.93,7.64,4.46,7.22-2.8,7.23-9.44,8-14.77l-10.74-1.8c10.36-2.12,10.87-3,11.26-12.86.21-5.43,1.26-10.82,1.93-16.22l1.81-2.95c.4-2.67.8-5.33,1.21-8,.06-1.1.13-2.21.2-3.32l-.9-.13-.57,2.94.16.08-3.17.26-.2.07c-.45-.48-.91-1-1.37-1.42,1.59-22.3,7.88-43.75,11.74-65.64a73.27,73.27,0,0,1,1.94-7.07l7.51-13.09c6.87-8.15,8.93-18.2,11.12-28.2l0,.07c13.4-19.7,16.9-41.82,14.57-65.78l-4.22,8-5,2.29c-8.59,9.57-8.31,22.33-12.32,33.6-.32-12.52,1.26-24.53,9.14-35,1.83-2.42,3.44-5,5.15-7.5l5.38-3.67c4.6-4.76,1.83-10.5,2.11-15.84q-1-5.34-2-10.68c.51-4.26,1.52-8.52,1.45-12.76-.33-21.1,1.82-41.81,8.81-61.85.6-1.72,2.47-4.4-1.82-4.15l-1.4-1.21c10.76-14,20.62-28.56,36.43-37.92,19.95-11.8,40.31-15.19,62.16-6.5l5.34.7c3.55,3.07,3.9.7,3.88-2.29-.09-10,.33-20.11-.46-30.08-.43-5.5-2.88-10.84-4.41-16.25L389,166.15c-1.72-7.39-3.82-14.71-5.08-22.18-2.28-13.39-2.2-26.8,1.55-40,.21-.72,1.1-1.25,2.74-3-2.19,19.07-4.29,36.87,3.92,53.72l2.36,4.59c6.43,16,8,32.66,7.29,49.71-.14,3.34.74,6.71.76,10.06,0,8,7.72,7.8,12,10.92,1.86,1.35,5.85-.26,9.54-.59-2.39-20.88,2.65-39.05,9.88-56.86,1.1-2.71.7-6,1-9.08l1.89-4c2.38-10,5.14-19.92,7-30,1.51-8.18,1.91-16.57,4.35-24.9a27.24,27.24,0,0,1,.62,5.57c-1.54,18.26-2.23,36.64-8.07,54.29-.72,2.18,0,4.84.05,7.28l-2.7,4.23c-5.77,15.44-10,31.09-7.87,49.05l5-2.87,5.37-1.81c7.65-2,15.25-4.37,23-6,19.48-4.16,36.68,1.12,50.65,14.89,8.44,8.32,15.32,18.22,22.89,27.41,2.51,3,5,6.09,7.5,9.14a16,16,0,0,1-1.27,1.33c-.3,1.09-1.13,2.38-.81,3.24,8.71,23.28,10.14,47.59,10.33,72.08,0,1.22.18,2.44.27,3.66l-1.63,11.54c.51,5.76-3.19,12.33,3.29,16.93l5,3.47c1.66,2.54,3.22,5.14,5,7.6,6.3,8.75,10.07,23.55,8.65,37.64-3.93-13.68-3.1-26.94-12.54-36.33l-4.07-2.67q-1.92-3.19-3.86-6.39c-1.5,8.51-2.34,16.45-1.32,24.14,1.86,13.9,5.58,27.36,14.45,38.77l0-.07c.65,1.88,1.29,3.75,1.93,5.63l-.07-.11,3.72,9.36,0-.05c-.58,6.75,2.6,11.9,7,16.52l5.63,6.35,8,35.39c-.17,1.54-.34,3.09-.52,4.63l.14,17.18c.32,3-.85,6.73,3.7,7.71-.58,6.36,1.53,11.76,5.4,16.77,1.33,1.73,1.57,4.31,2.31,6.5-1.27-1.19-2.46-2.49-3.82-3.55-1.76-1.39-3.67-2.59-5.51-3.87l.05.08-.48-3-1,0-.53,3.24q1.1,3.64,2.17,7.27c.32,0,.64,0,1,.06.92,7.55,1.76,15.11,2.79,22.65.71,5.19,4.86,8.1,9.84,7.16s7.41-5,5.09-10.29c-1.92-4.38-5-8.22-7.64-12.29l-1.91-2,.06,0-.1-5.58c8.85,7.17,13.61,16.56,14.81,27.77.58,5.42,1.65,11.06.71,16.27-.6,3.32-4.5,6-7.27,9.45l2.73,15.18.11-.09-7.6-17.13c-4,6.86,1.39,13.12-1,20.7-1.64-8.71-3-16-4.36-23.2l-2.28-.35c-1.47,4.38-2.93,8.75-5,14.87,0-4-.59-6.43.09-8.44,5.18-15.3.67-30.75-1.19-45.53-2-16-9.75-31.35-14.9-47-1.24-3.76-2.11-7.65-3.14-11.48q.88-2.41,1.79-4.85-3.63-13.22-7.27-26.45l.36-6.55c.75-13.77-5.07-26-10.85-37.59-10.64-21.28-14.6-43.35-13.47-66.83.61-12.56.24-25.17.31-37.76,3.44-5.62,2.23-10.73-1.74-15.53.66-2.25,2-4.53,1.87-6.75a139.53,139.53,0,0,0-12.81-53.45c-.39-.86-1.64-1.34-2.49-2-3.47-7.87-7.28-15.49-14.32-20.9l-2.05-2,.11.11-3.71-2,.06,0-1.9-1.88,0,0L507,231.26l0,0c-.91-1.12-1.62-2.55-2.76-3.32a55.07,55.07,0,0,0-38-9.18l-27.52,8.68c-5.29,1.67-7.33,5-5.11,10.35,1,2.58,1.9,7.32,3,7.39,10.06.55,13.49,8.16,17.56,15.24-3.25,1.5-6.89,2.51-9.63,4.65-2.37,1.86-4.07,4.86-5.3,7.68-.36.85,2.06,4.16,2.83,4a25.84,25.84,0,0,0,8-3c1.74-.95,3.11-2.58,4.64-3.9,9.69,2.38,12.58,9.44,11.56,19.18,4.69,0,8.3-.17,11.89.05,3.94.24,7.86,1.22,11.79,1.21,5,0,10.39.28,13.85-4.68l3.38-.45c5.44-.46,10.71-1.34,14.59-5.74q-1.27,6.48-2.54,13a12.68,12.68,0,0,1-1.62-.25c-.39-6.32-.63-6.44-7.11-3.6Zm83.6,256-1.85-5.58c-.1-7.25,0-14.51-.46-21.75-.09-1.47-2.05-2.83-3.15-4.24,2.11-6.23-2.44-11-3.63-16.49l4.46.77c-3.53-8.59-6.74-16.37-9.94-24.15-2.44,6.88-1.84,12.62,2.85,17.51,1.33,1.39,1.65,3.75,2.44,5.67l-3.07-.6c.44,7.83.74,15.59,1.41,23.32.17,1.91,1.56,3.72,2.54,5.9,1.08-4.5,2-8.18,2.86-11.85.36,8.74-1.4,17.8,3.79,25.83.61,1.86,1.23,3.72,1.84,5.58.16,2,.31,4.06.47,6.09l1.68-.5C591.64,549.92,590.89,548.09,590.15,546.25Zm-347.71-1.88q2.15-5.86,4.28-11.75l-2.14-.62q-1.11,6.15-2.21,12.3l-1.25.67.69.84Zm14.83-51.75a1.51,1.51,0,0,0,1.19-1.17c.13-2.26.27-4.51.4-6.77l2.67-14.43-2.83-.72q-4.48,13.26-9,26.51l-2.16,16q-.81,8-1.61,16.06l1.63.17c.22-.85.45-1.7.67-2.55,3.71,0,3.44-2.7,3.62-5.13,5.33-8.67,3-18.85,5.52-28.06Zm340.4,107.09c1.63,4,2.7,8.78,5.33,12.48,3.43,4.83,9.43,3.4,11-2.34,1.13-4,1.46-8.3,2-11.66ZM423,235.5c.29.4.53,1.08.87,1.13s1-.32,1.58-.52c-.37-.6-.75-1.2-1.12-1.81Z" transform="translate(-208.76 -100.95)"/><path class="cls-2" d="M337.37,652.53c-1.65-14.82,1.29-29.21,3.95-43.64.38-2.07-.37-4.34-.6-6.52l-.55-3v-4.16l-1.46-.25-6.47,18q-1.23,5.81-2.44,11.62c-.1,6.79-.53,13.58-.24,20.35.63,14.82-5.82,27.5-11.67,40.38-.24.53-1.53.59-2.33.87.06-2.09.13-4.18.19-6.27,5.89-9.92,7.63-21,7.93-32.16.36-13.54-.84-27.33,4.34-40.14,3.77-9.32,8.22-18.64,14-26.76,5.08-7.1,7.35-14.76,8.86-22.78,2.1-11.2,1.19-22.44-.93-34.05L331.37,536.7,330.09,535c2.78-2.54,5.58-5.06,8.34-7.62,6.58-6.08,12.41-12.23,13.54-22.12.61-5.4,4.5-10.43,7.06-15.93-10.77-3-19,4.18-29.4,7,5.35-8.15,12.64-12,19.85-12.41,23.52-1.33,37.73-17.46,54.4-31.3-8.85-16.4-12.84-33.37-7.45-51.7-15,1.35-22.23,8.74-24.27,23.64-1.42,10.37-14,21.2-27.13,21.91,5-3.13,8.94-5.24,12.46-7.91,5.95-4.52,11.18-9.38,11-18.07-.07-3.76,2.2-7.56,3.41-11.34a2.71,2.71,0,0,0,.71-.46c.11-.12.06-.39.07-.6l-.84,1c-5.17,3.11-10.31,6.26-15.52,9.3-2.25,1.32-4.62,2.42-6.94,3.62l-1.27-1.53c1.53-1.43,3-2.9,4.61-4.3,6.83-6.1,14.05-11.82,20.42-18.37,6.18-6.37,13.23-11,21.59-13.42,5.57-1.59,8.19-4.8,8.68-10.75-3.1-2.49-6.59-4.88-9.6-7.77-6.29-6.05-13.23-8.05-21.9-5.84-3.51.9-7.62-.61-11.46-1l.51-2.39c5,.64,10,1,15.75-3.62l-10.3-7.17.39-3.19c5.14,1.4,9.94,3.17,12.28,8.69a7.27,7.27,0,0,0,3.29,3.09c8,4.18,16.1,8.22,24.22,12.34.88-2.79,2-6,2.87-9.24,4.38-16.71,5.55-33.28-2.59-49.35l-2.49-13.85-1.71-6.73c-3.63-.61-6.91-1.07-10.14-1.72-9.82-2-12.58-.09-14.77,10.29l-.45,6.84c-8.3,7.85-16.7,15.56-19.65,27.35-.6,2.43-2.61,4.5-4,6.73l-.55-.35c2.7-8.21,5.41-16.42,8.24-25l-13.55,8.61c3-7.27,8.61-11.07,15.68-12.36,4-.73,6.92-2.2,8.38-6.09l1.54-6.92c3.54-11.91,5.47-13.34,19.75-14.05-11-7.66-21.47-8.41-32.59-2-3.33,1.92-7.11,3-10.69,4.53l-.31-.34,9.92-8.36-15.07-1.57c-.16-.67-.31-1.34-.47-2l5.47-3,.49.51c.64.8,1.41,2.37,1.9,2.29a74.35,74.35,0,0,1,47,7.2,27.89,27.89,0,0,0,3.81,1.22c.66-2.92,1.23-5.46,1.89-8.34a83.78,83.78,0,0,1-9.06-3c-2.74-1.25-5.07-3.45-7.85-4.54-1.82-.71-4.12-.2-6.2-.23-.33-.43-.65-.85-1-1.29-2.33-5.7-6.57-2.07-10-1.92-4.69.22-9.36.89-14.18-.28l29.4-5.31c3.15,2.34,7.67,5.87,12.39,9.1,1.83,1.25,4.18,1.95,4.46-1.73l1.33-1.33c1.9-6.93-.14-13.39-5.47-17.2-23.37-16.72-55.79-21.94-79.54,3.23-4.12,4.38-6.69,10.21-10,15.38-3.77-10-2.69-15.73,4.19-22.23,7.93-7.49,17.2-12.86,27.15-17.15,1.37.37,2.88,1.33,4.08,1,12.76-3.25,25.19-1.86,37.57,2.06,1.68.53,3.74-.14,5.62-.26l5.68,2.17c.71,1.31,1.12,2.95,2.16,3.87,5.84,5.11,11.83,10,18.3,15.5l2.92-1.51,3.78,3.26c-5.22,4.52-10.68,8.95-6.25,17.32l7,.48L418,270.67c-5.77-.94-7.57,1.95-6.93,7.19-3.22,11.05-4.85,21.85,3.85,31.53,1.06,1.18.72,3.51,1.4,5.15,1.85,4.4,3.91,8.71,5.88,13.06,1.72,18.25-3.41,35.4-9.26,52.59l12.68,1.67-.12,5.05-13.33-1.31c-9.43,16.61-8.57,20.86,6.12,31.09,2.23,1.56,4.71,2.78,7.08,4.16-.62,1.77-1.23,3.55-1.85,5.33l-19.51-12c-1.4,10.05,1.36,19,5.05,27.8-1.26,1.62-3.94,3.94-3.55,4.73,3.44,7-2,10.58-5.2,14.92-3,4.08-6.43,7.86-9.67,11.78l-3.94,6.17,0,0c-4.09,2.17-8.47,3.93-12.23,6.58-17.39,12.25-21.7,29.36-18,50.16l6.06-10.58c-.69,4.79-1.1,9.64-2.14,14.36-2.88,13-6,26-9.07,39,.17,3.16-4,6.5.41,9.47l-.25,7.31c-1.16,1.48-2.87,2.79-3.34,4.46a55.71,55.71,0,0,0-1.54,9.84c-1.28,13.21-2.46,26.42-3.68,39.63Zm61.4-259.76-1.62-3-15.24,7.94.89,1.68Z" transform="translate(-208.76 -100.95)"/><path class="cls-3" d="M305.26,1103.65l-5,9.88" transform="translate(-208.76 -100.95)"/><path class="cls-1" d="M290.55,1125.82l-3.6,3.7Z" transform="translate(-208.76 -100.95)"/><path class="cls-3" d="M306.73,1101.59l-1.48,2.08Z" transform="translate(-208.76 -100.95)"/><path class="cls-1" d="M286.53,1130a.77.77,0,0,0-.56,1A1.19,1.19,0,0,1,286.53,1130Z" transform="translate(-208.76 -100.95)"/><path class="cls-2" d="M433.63,237.82c-2.22-5.39-.18-8.68,5.11-10.35l27.52-8.68c2.21.92,4.36,2,6.62,2.72q14.83,4.77,29.72,9.33a22.92,22.92,0,0,0,4.42.45l0,0,1.91,1.87,0,0,1.9,1.88-.06,0,3.71,2-.11-.11,2.05,2c7,5.41,10.85,13,14.32,20.9,3,14,5.89,28.06,8.89,42.08,1.44,6.72,3,13.41,4.54,20.11,4,4.8,5.18,9.91,1.74,15.53l-4.54-6.34c.87,23.63,1.58,45.14,2.48,66.64a171.62,171.62,0,0,0,13.59,60.78c3.2,7.45,8.26,14.09,12.48,21.1l-.36,6.55c-2.18-1.16-3.59-.7-3.14,1.95s1.37,5.18,2.08,7.76c-.44.34-.88.66-1.33,1-12.09-25.86-22.65-52.18-27-80.7-3.34-22-3.66-44-3.85-66.13,0-4.91-.33-9.81-.5-14.72l4.71-3.4-.82-1.57-3.81-.34c-1-9.9-1.89-19.83-3.22-29.7-.58-4.31-2.15-8.49-3.27-12.73-.21-3.48-.41-7-.61-10.45l.21-2.3-3.14-3.35c-.88-1.7-1.74-4.85-2.65-4.87-7.17-.1-14.65-1.57-21.23,2.53,1.85,5.62,3.57,10.83,5.28,16.05l-3.38.45c-1.64-3.6-3.19-7.26-4.95-10.8-4.74-9.52-11-13.14-20.4-11.9-5.41.71-10.84,1.28-16.22,2.15-3.1.49-7.1-.08-7.52,4.79-1.53,1.32-2.9,2.95-4.64,3.9a25.84,25.84,0,0,1-8,3c-.77.13-3.19-3.18-2.83-4,1.23-2.82,2.93-5.82,5.3-7.68,2.74-2.14,6.38-3.15,9.63-4.65l16.95-3.7c.31.24.61.49.91.75,5.88,1.69,9.65-1.09,12.75-5.77,3.64-5.48,8.38-8.84,15.76-7-10.3,4.66-10.3,4.66-12.86,12.66,9.07,5.42,9.07,5.42,35.46,5.58-10.08-29.17-56.25-39.53-75.87-32.73C442.47,231.93,438.18,235.25,433.63,237.82Z" transform="translate(-208.76 -100.95)"/><path class="cls-2" d="M469.93,545.29c-5.12-6.35-6.73-13.87-7.25-21.76,14.85,14.51,24.24,31.56,23.93,52.89a24.48,24.48,0,0,0,3.74,13.82c8.53,14,11.83,29.78,12,45.78.12,15.56,1.84,30.6,6.49,45.38a5.66,5.66,0,0,1-.28,4.75l-9.14-17.57.09-.07c-2.35-10.73-4.62-21.47-3.52-32.59a34.32,34.32,0,0,0-3.84-20.34c-.07-1.89-.13-3.77-.19-5.66l-1.73-4.47.1.13-2-5.63,0,.06-1.65-3.38-2,1.61c-.31,2.72-1.32,5.59-.8,8.14,3,14.69,6,29.33,4.15,44.46L482.62,648c-.82-10.53-1.27-21.1-2.57-31.57-.91-7.3-3-14.46-4.54-21.68-.55-3.83-2.43-8.09-1.35-11.38,2.08-6.4-.34-11.76-1.49-17.59-1.21-6.19-1.64-12.54-2.42-18.82q5,15.13,10,30.27l2.06-.7A54.66,54.66,0,0,0,471.67,544Z" transform="translate(-208.76 -100.95)"/><path class="cls-2" d="M499.69,863.44c-4.65-10.85-9.91-21.5-13.73-32.64-2.61-7.64-3.21-16-4.71-24,11,25.55,25.66,49.6,30.19,77.8A280.59,280.59,0,0,1,513,960c-.82,7.53-2.75,14.93-4.17,22.4l-3.89-5.61c4.83-28.33,6-56.79,1.82-85.25C505.31,882.06,502.09,872.81,499.69,863.44Z" transform="translate(-208.76 -100.95)"/><path class="cls-2" d="M432.45,432.2l.81-4.95c11.95,6.49,25,9.17,38.17,12.06,8.89,1.95,16.36,7.86,23.52,15.84-8-.37-12.75-5.14-18.5-7.34-2.81-1.08-5.56-2.33-8.34-3.5-.71-.4-1.43-.79-2.15-1.18l-.35.76,2.45.48a87.71,87.71,0,0,1,6.71,6c3.07,3.37,6.31,6.72,8.64,10.58,3.9,6.47,7.14,13.34,10.78,20.3-7.07-.65-11.22-5-13.61-11.79-4.16-11.91-12.39-19.39-24.81-22.06l-2-.92.87,2q4.08,7,8.17,14.08c-.32.27-.65.54-1,.78-6.41-6.91-12.8-13.84-19.25-20.72C439.27,439.13,435.83,435.69,432.45,432.2Z" transform="translate(-208.76 -100.95)"/><path class="cls-2" d="M367.85,543.85l2.27-5.36c9.95,10,17.35,21,19.3,35.64,1.08,8.08,4.6,15.82,7,23.74.47,1.58.67,3.24,1,4.87l-1.67.79c-3.07-5.09-6.15-10.17-9.76-16.15-3.71,13.38,3.12,24.78,4.67,38.86-8.54-13-14.14-25.23-10.86-38.5C384.09,570.31,379.67,556.34,367.85,543.85Z" transform="translate(-208.76 -100.95)"/><path class="cls-2" d="M395.54,486q2.35-5.26,4.7-10.55l12.25-6.42c-.88-2.38-1.4-3.79-1.91-5.2,2.49-5.39,5.09-2.88,7.24.12,6.56,9.13,12.66,18.61,19.5,27.52,4.05,5.29,4.55,10.3,1.8,16-8.52-5.27-12.53-14.14-17.56-22.18-1.93-3.09-3.55-6.38-5.92-10.67Z" transform="translate(-208.76 -100.95)"/><path class="cls-2" d="M436.47,392.86l.13-7.64a19.81,19.81,0,0,1,4.61-.07,50.13,50.13,0,0,0,34-4c3.36-1.65,7.65-1.4,11.68-1.21-12.89,7.32-25.11,16.83-42.45,10.13,9.28,13.09,10.48,13.92,39.11,28-8.63,2.19-24.39-2.76-32.06-10.2C446.41,403,441.47,397.88,436.47,392.86Z" transform="translate(-208.76 -100.95)"/><path class="cls-2" d="M456.51,534.57c.84,2.57,1.69,5.14,2.53,7.71-2.59,3.43-5,7-7.82,10.27-7.61,8.71-8.5,18.62-6.08,29.44,3.16,14.17.7,27.35-8,40.12,1.06-9.8,2-18.73,3-27.66v-5.94l-1.05-.11-.78,4.13-7.15,10.32C435.18,577,439.43,553.41,456.51,534.57Z" transform="translate(-208.76 -100.95)"/><path class="cls-2" d="M488.8,1069.05c-.09.61-.19,1.21-.32,1.81-6.2-5.3-6.75-12.95-7.27-20.07-.92-12.51-.42-25,2.77-37.37,2.57-10,3.16-20.49,4.63-30.77,1.19,2.6,2.86,5.09,3.45,7.81.68,3.2.42,6.61.56,9.92l0,29.55-2.07,19c-1.38-5.91-2.75-11.82-4.53-19.46C483.21,1044.25,485.73,1056.67,488.8,1069.05Z" transform="translate(-208.76 -100.95)"/><path class="cls-2" d="M342.29,1045.28q-1.14-9-2.29-18.07l-.09-19.1c.18-4,0-8,.67-11.82.48-2.75,2.15-5.3,3.29-7.93,2.29,13.25,4.77,26.48,6.84,39.76a81.71,81.71,0,0,1-3.94,40.76c-.3-12,3.2-24.16-1.42-36C344.3,1037.18,343.29,1041.23,342.29,1045.28Z" transform="translate(-208.76 -100.95)"/><path class="cls-2" d="M451.33,499.69l-1.88-5.16c10.33,0,20.67-.32,31,0,9.22.31,16.46,5.63,23.69,11.13-9.9-.68-18.72-8-29.37-4.83l22.9,19.45.09-.08c-5.22-2.21-10.68-4-15.62-6.71C472.23,508,463.14,500.86,451.33,499.69Z" transform="translate(-208.76 -100.95)"/><path class="cls-2" d="M451.1,647.65c.07-5.52.33-11.06.15-16.57a33.74,33.74,0,0,1,5.35-20l4.11-7.53-.08.1,5.6-4,.73,5.95c-8.61,14.18-12.51,28.91-8.72,45.82,1.65,7.36-.57,15.59-1,23.43l-2.59.11c-.38-3.43-.72-6.87-1.17-10.29C452.7,659,451.89,653.3,451.1,647.65Z" transform="translate(-208.76 -100.95)"/><path class="cls-2" d="M273.71,381.45l5-2.29c-.72,10-.66,20.09-2.4,29.89-1.69,9.48-5.22,18.64-7.95,27.94l0-.07-11.12,28.2-7.51,13.09c2-7.38,3.75-14.84,6.06-22.12,5.48-17.26,11.8-34.28,16.59-51.72C274.41,397.15,273.37,389.11,273.71,381.45Z" transform="translate(-208.76 -100.95)"/><path class="cls-2" d="M480.69,701c4.63,2,4,6.37,4.44,10.21-1.94,9.9-4.17,19.75-5.74,29.7-1.81,11.53-3,23.15-4.51,34.73q-2.25-9.3-4.49-18.62.87-6.31,1.73-12.64a26.31,26.31,0,0,0,1.47-4.12C476,727.22,478.33,714.13,480.69,701Z" transform="translate(-208.76 -100.95)"/><path class="cls-2" d="M584.25,478.33,578.62,472q-3.5-8.26-7-16.52l0,.05-3.72-9.36.07.11c-.64-1.88-1.28-3.75-1.93-5.63l0,.07c-.58-2.35-.84-4.82-1.77-7-6.72-15.87-8.71-32.44-7.5-49.5l4.07,2.67c-1.13,19,3.67,36.82,10.41,54.36C576,453.43,580,466,584.25,478.33Z" transform="translate(-208.76 -100.95)"/><path class="cls-2" d="M359.33,608c.12-2.85.25-5.7.37-8.55l4.87,2.37-.05-.07,1.92,3.74,0,0,1.88,3.75,0-.06,1.89,3.77,0-.07,1.89,3.81-.08-.1c5,19.25-.18,38.44.09,58.31-4.52-8.34-5.53-18.67-3.13-31.81S366.82,618.46,359.33,608Z" transform="translate(-208.76 -100.95)"/><path class="cls-2" d="M392.18,218.71l-5.34-.7c-.81-10.3-1.78-20.6-2.38-30.91-.43-7.34.14-14.59,4.54-20.95l2.19,3.94a52.32,52.32,0,0,0-1,26C391.72,203.49,391.59,211.17,392.18,218.71Z" transform="translate(-208.76 -100.95)"/><path class="cls-2" d="M438.13,175.91l2.7-4.23c1.1,5.28,3.29,10.6,3.09,15.82-.43,10.95-2.12,21.86-3.29,32.78l-5.37,1.81c1.3-10.92,2.83-21.82,3.76-32.78C439.4,184.9,438.46,180.38,438.13,175.91Z" transform="translate(-208.76 -100.95)"/><path class="cls-2" d="M482.79,922q.66,9.51,1.31,19l-3.81-4.48L477.16,929l-.09-.15c-.75-5.09-1.45-10.18-2.24-15.26-.66-4.28-3.55-8.89,2-12.13Z" transform="translate(-208.76 -100.95)"/><path class="cls-2" d="M499.75,1022.69l-1.8-15.25,5.76-21.26c6.25,3.44,2.17,9.52,3.61,14.18-1.35,4.32-2.63,8.67-4.07,13C502.19,1016.48,500.92,1019.57,499.75,1022.69Z" transform="translate(-208.76 -100.95)"/><path class="cls-2" d="M483.25,656.78l5.29,3.42-2.7,32.49-5-8Q482,670.74,483.25,656.78Z" transform="translate(-208.76 -100.95)"/><path class="cls-2" d="M355.8,897.91c5.53,5,3.36,11.41,2.61,17.14-.7,5.3-3.09,10.38-4.74,15.55l-2.35.72q-.48-6.69-.95-13.4Z" transform="translate(-208.76 -100.95)"/><path class="cls-2" d="M476.35,890.68l-4.53,4.55C469.73,882.85,473,872,481,862.46l.54,7.72Z" transform="translate(-208.76 -100.95)"/><path class="cls-2" d="M436.89,159.46l-1.89,4c-7.65-13.61-7.55-26.18,1.47-36.54-1.28,6.53-3.16,11.58-3,16.57C433.61,148.82,435.67,154.13,436.89,159.46Z" transform="translate(-208.76 -100.95)"/><path class="cls-2" d="M485.39,788.27c3.33,4.67,7.89,8.92,9.68,14.13,2.65,7.68,3.33,16.05,4.84,24.13l-1.79.66c-1.36-3.11-3.74-6.18-3.88-9.36-.47-10.58-4.41-19.63-10.45-28Z" transform="translate(-208.76 -100.95)"/><path class="cls-2" d="M351.3,873.3c.15-2.56.3-5.13.44-7.69,7.23,4.59,7.72,12.38,9.07,19.65.49,2.62-.05,5.42-.12,8.14l-5.46-3.73Z" transform="translate(-208.76 -100.95)"/><path class="cls-2" d="M551.55,357.54,553.18,346c5.08,10.05,6.33,20.89,6.62,31.94l-5-3.47Q553.2,366,551.55,357.54Z" transform="translate(-208.76 -100.95)"/><path class="cls-2" d="M281.06,368.92l-5.38,3.67a58.43,58.43,0,0,1,5.53-30.19q1,5.34,2,10.68Q282.12,361,281.06,368.92Z" transform="translate(-208.76 -100.95)"/><path class="cls-1" d="M544.66,265.69c2.34,3.11,5.55,5.89,6.85,9.39a178.31,178.31,0,0,1,8.2,29.6L543.39,267A16,16,0,0,0,544.66,265.69Z" transform="translate(-208.76 -100.95)"/><path class="cls-2" d="M394.49,159.26l-2.36-4.59c4.37-8.78,2.5-17.48-1.32-26.79C399.48,133.24,400.66,146.76,394.49,159.26Z" transform="translate(-208.76 -100.95)"/><path class="cls-1" d="M528.73,277.12c.2,3.48.4,7,.61,10.45-.45,3.33-.69,6.71-1.38,10a187.52,187.52,0,0,1-6.83,25.61L523.65,300c.09-.71.17-1.41.25-2.11,1.11-3,2.54-6,3.24-9.05C528,285,528.23,281,528.73,277.12Z" transform="translate(-208.76 -100.95)"/><path class="cls-1" d="M533,337,527,365.27c-1.07-10.08-3.26-20.38,5.24-28.87Z" transform="translate(-208.76 -100.95)"/><path class="cls-2" d="M595.52,543.24c-4.55-1-3.38-4.7-3.7-7.71l-.14-17.18c.18-1.54.35-3.09.52-4.63,1.23,2.87,3.33,5.67,3.51,8.6C596.13,529.26,595.64,536.26,595.52,543.24Z" transform="translate(-208.76 -100.95)"/><path class="cls-2" d="M523.9,297.85l-.25,2.11c-7.24-.52-11.68-6-17.1-9.7l4-1.71,7.11,3.6a12.68,12.68,0,0,0,1.62.25Z" transform="translate(-208.76 -100.95)"/><path class="cls-1" d="M289.65,263.64l-9,20.78c-.21-8.31,1.92-15.78,7.6-22Z" transform="translate(-208.76 -100.95)"/><path class="cls-1" d="M499.38,668.58l1.23,7.94-.95.53-8.26-15.41c.41-.33.82-.66,1.22-1l6.85,7.88Z" transform="translate(-208.76 -100.95)"/><path class="cls-1" d="M477.16,929l3.13,7.51v8.6l-2.22.19Q477.62,937.17,477.16,929Z" transform="translate(-208.76 -100.95)"/><path class="cls-2" d="M576.74,512.62,575,517.47l-5.7-15.21c.32-.28.66-.55,1-.81,1.15,2.95,2.15,6,3.54,8.81C574.3,511.28,575.73,511.85,576.74,512.62Z" transform="translate(-208.76 -100.95)"/><path class="cls-1" d="M273.6,298.42l4.58-11,1.75.57q-1.83,5.7-3.67,11.42Z" transform="translate(-208.76 -100.95)"/><path class="cls-1" d="M505.18,1079.55l6.27,8.63-1.36,1.18-5-9.69Z" transform="translate(-208.76 -100.95)"/><path class="cls-1" d="M545.45,1126.32a15.27,15.27,0,0,1-2,1.49c-1.77-1.76-3.4-3.66-5.06-5.54l0,0,7,4Z" transform="translate(-208.76 -100.95)"/><path class="cls-1" d="M535.83,330l3.81.34.82,1.57-4.71,3.4H535c-.3-.31-.59-.63-.87-.95Z" transform="translate(-208.76 -100.95)"/><path class="cls-1" d="M215.09,620.82l2.12-7,1.36.36-2,7.09Z" transform="translate(-208.76 -100.95)"/><path class="cls-1" d="M511.45,1088.18l5.7,7.14a10.46,10.46,0,0,0-1.22,1.27l-5.84-7.23Z" transform="translate(-208.76 -100.95)"/><path class="cls-1" d="M232.55,556.7l3.54-5.78c.46.47.92.94,1.37,1.42l-.69,3.11.06-.08-1.84,2,.1-.11a4.16,4.16,0,0,1-1.43.51Z" transform="translate(-208.76 -100.95)"/><path class="cls-1" d="M622.37,619.53,620,615.91l1.27-.81,2.26,3.74Z" transform="translate(-208.76 -100.95)"/><path class="cls-2" d="M481.54,784.61l3.85,3.66-1.6,1.55-3.68-3.67Z" transform="translate(-208.76 -100.95)"/><path class="cls-2" d="M475.65,784.17c.08-1.17.16-2.35.23-3.52l5.66,4-1.43,1.54Z" transform="translate(-208.76 -100.95)"/><path class="cls-1" d="M229,562.45l3.57-5.75,1.11,1.08c-.19,1.09-.39,2.19-.58,3.28l.09-.15-3,2.55Z" transform="translate(-208.76 -100.95)"/><path class="cls-1" d="M527.34,1135.16l3.39,2.37c-.4.35-.79.71-1.18,1.07l-2.27-3.37Z" transform="translate(-208.76 -100.95)"/><path class="cls-1" d="M216.54,607.34,214.8,611l-1.4-1.32,3.07-2.38Z" transform="translate(-208.76 -100.95)"/><path class="cls-1" d="M445.77,661.93a10,10,0,0,1-.92,2.22c-.13.19-1-.14-1.52-.24.41-.92.82-1.85,1.24-2.77Z" transform="translate(-208.76 -100.95)"/><path class="cls-2" d="M569.25,502.26q-1.1-2.7-2.17-5.4c.45-.32.89-.64,1.33-1,.61,1.86,1.23,3.72,1.84,5.57C569.91,501.71,569.57,502,569.25,502.26Z" transform="translate(-208.76 -100.95)"/><path class="cls-1" d="M303.51,1122.27l-3.8,3.63.08.06,3.54-3.83Z" transform="translate(-208.76 -100.95)"/><path class="cls-1" d="M492.22,1079.59c.6,1,1.2,2,1.81,3l-1.32.5-.78-3.23Z" transform="translate(-208.76 -100.95)"/><path class="cls-1" d="M617.28,618.91v2.37a3.8,3.8,0,0,1-.54,0c0-.78,0-1.55,0-2.33Z" transform="translate(-208.76 -100.95)"/><path class="cls-1" d="M619,624.51l.51,1.67-1.13-.08Z" transform="translate(-208.76 -100.95)"/><path class="cls-1" d="M222.08,625.85l-.34,3.18-1.12-.4c.49-.93,1-1.86,1.45-2.79Z" transform="translate(-208.76 -100.95)"/><path class="cls-1" d="M614.19,635.13c.45.63.89,1.25.2.27.3,1.22.1.43-.09-.36Z" transform="translate(-208.76 -100.95)"/><path class="cls-1" d="M337.05,1085.49l-.69,3.21-1.42-.54,1.72-3.08Z" transform="translate(-208.76 -100.95)"/><path class="cls-1" d="M497.68,1087c-.21.49-.42,1-.63,1.43a5.87,5.87,0,0,1-1.21-1.56c-.09-.25.57-.78.9-1.18Z" transform="translate(-208.76 -100.95)"/><path class="cls-1" d="M517.15,1095.32l3.18,2.37-1.45,1.71-3-2.81A10.46,10.46,0,0,1,517.15,1095.32Z" transform="translate(-208.76 -100.95)"/><path class="cls-2" d="M462.83,462.62l1,2.95-2-2.17C462.18,463.16,462.51,462.89,462.83,462.62Z" transform="translate(-208.76 -100.95)"/><path class="cls-1" d="M303.33,1122.13c.65-1.21,1.3-2.42,1.94-3.63l.16.13-1.92,3.64Z" transform="translate(-208.76 -100.95)"/><path class="cls-1" d="M527.45,1118.41l1.86,3.67-.22.23-2.27-3.39Z" transform="translate(-208.76 -100.95)"/><path class="cls-1" d="M531,1124.1l3,1-2.07,1.72c-.31-.92-.62-1.84-.94-2.75Z" transform="translate(-208.76 -100.95)"/><path class="cls-1" d="M298,1129.71c.61-1.25,1.21-2.5,1.81-3.75l-.08-.06-1.83,3.7Z" transform="translate(-208.76 -100.95)"/><path class="cls-1" d="M536.13,1130.26l-.57.57a9.81,9.81,0,0,1-.63-1.41c0-.12.36-.36.56-.54Z" transform="translate(-208.76 -100.95)"/><path class="cls-1" d="M519.85,1137.09l1.67,2.22-1.18.54c-.12-1-.25-1.91-.37-2.86Z" transform="translate(-208.76 -100.95)"/><path class="cls-1" d="M534.15,1142.36c-.06.24-.13.48-.19.71a4.3,4.3,0,0,1-.66-.83c0-.09.3-.36.47-.54Z" transform="translate(-208.76 -100.95)"/><path class="cls-1" d="M211.86,614.49c-.17-.24-.48-.48-.46-.7s.35-.42.55-.63c.17.23.48.48.47.7S212.06,614.28,211.86,614.49Z" transform="translate(-208.76 -100.95)"/><path class="cls-1" d="M336.66,1085.08l1.9-1.79.2.2-1.71,2Z" transform="translate(-208.76 -100.95)"/><path class="cls-1" d="M209.18,618.45c.28-.35.56-.7.85-1-.05.21,0,.51-.14.62a2.59,2.59,0,0,1-.8.33Z" transform="translate(-208.76 -100.95)"/><path class="cls-1" d="M520.33,1097.69l1.95,1.79-1.65,1.66-1.75-1.74Z" transform="translate(-208.76 -100.95)"/><path class="cls-1" d="M522.28,1099.48l1.74,2-1.75,1.5-1.64-1.83Z" transform="translate(-208.76 -100.95)"/><path class="cls-1" d="M209.09,618.36l-.33.59.42-.5Z" transform="translate(-208.76 -100.95)"/><path class="cls-1" d="M531.33,1114.52l.95,1.91-2-.92Z" transform="translate(-208.76 -100.95)"/><path class="cls-2" d="M497.66,520.29l.72.79c-.15-.06-.38-.09-.45-.2a2.45,2.45,0,0,1-.18-.67Z" transform="translate(-208.76 -100.95)"/><path class="cls-1" d="M536.31,1120.63l-1.28-1.47,1.67,1.08Z" transform="translate(-208.76 -100.95)"/><path class="cls-1" d="M538.37,1122.27l-2.06-1.64.39-.39,1.72,2Z" transform="translate(-208.76 -100.95)"/><path class="cls-1" d="M531,1124.08l-1.92-1.77.22-.23,1.68,2Z" transform="translate(-208.76 -100.95)"/><path class="cls-2" d="M394,487.74a6.1,6.1,0,0,1,1.05-1Z" transform="translate(-208.76 -100.95)"/><path class="cls-1" d="M297.88,1129.6l-.83,1.39.93-1.28Z" transform="translate(-208.76 -100.95)"/><path class="cls-1" d="M301.59,1138.87l-.58,1.45.63-1.39Z" transform="translate(-208.76 -100.95)"/><path class="cls-1" d="M532.26,336.4l1.83-2c.28.32.57.64.87.95L533,337Z" transform="translate(-208.76 -100.95)"/><polygon class="cls-1" points="313.62 1042.52 314.07 1042.31 313.99 1042.85 313.62 1042.52"/><path class="cls-2" d="M305.32,283.1c-1,4.3-2.35,8.56-2.81,12.91-1.1,10.34-1.76,20.71-2.59,31.07l.06,3.71c-.65,14.15-1.42,28.3-1.93,42.45-1.18,33.19-6.43,65.44-20.44,95.94-4.87,10.6-8.52,21.76-12.87,32.6-1.59,4-3.6,7.78-5.43,11.66-.08-2-.17-4.05-.25-6.07l1.87-7.56-.07.13q4.9-10.38,9.8-20.75l-1.42-.91L264.65,482c.09-2.32.17-4.63.26-6.95,15.6-20.72,22.76-44.85,25.13-70,2.31-24.39,1.76-49.06,2.41-73.6,0-.34-.77-.7-1.24-1.1l-2.07,1.71-.39-8.94,1.29-3.32.63-3.49c.59-1,1.53-1.93,1.72-3,1.32-7.49,2.19-15.08,3.79-22.52,2-9.15,4.51-18.19,6.8-27.28Z" transform="translate(-208.76 -100.95)"/><path class="cls-2" d="M335,855.52c-6.86,13.3-8.46,28-10.64,42.41-4.1,27-1.83,53.92,3.4,80.62L323.84,986c-1.83-9.87-4.39-19.67-5.35-29.63C315,920,317.09,884.07,331,849.78c6-14.71,13.48-28.79,20.29-43.16.95,12.07-4.41,22.54-8.47,33.33-.85,2.29-1.83,4.52-2.75,6.78-4.28-.32-3.16,2.83-3.32,5.16l0-.08c-.62,1.26-1.25,2.53-1.88,3.79Z" transform="translate(-208.76 -100.95)"/><path class="cls-2" d="M335.2,967.31c-4-15.88-.86-31.84-.61-47.77.05-3.69,0-7.38,0-11.06l.51-3.92a7.07,7.07,0,0,0,1.15-2.18q2.85-23.45,5.57-46.91c.87,2.23,2.24,4.4,2.49,6.7.41,3.82.09,7.72.08,11.58-.76,6.67-1.63,13.32-2.24,20-1.09,12.17-2.6,24.34-2.81,36.54-.14,7.57-2.9,15.54,1.51,22.89C340.36,958.45,342.91,964.93,335.2,967.31Z" transform="translate(-208.76 -100.95)"/><path class="cls-2" d="M490.27,860.13c1.74,9.28,4.56,18.5,5,27.84,1.24,25.8,1.48,51.64,2.12,77.47-3.89-2.57-6.16-5.93-5.29-10.82.48-1,1.4-2,1.37-3-.55-15.88-1-31.77-2-47.63-.46-7.8-1.86-15.54-2.84-23.31Z" transform="translate(-208.76 -100.95)"/><path class="cls-2" d="M345.78,703l11.82,47.25-2.37,9.47c-3.75-12.48-7.46-25-11.28-37.42-.93-3-2.24-6-3.37-9Z" transform="translate(-208.76 -100.95)"/><path class="cls-2" d="M342.24,658.28c.64,6.3,1.32,12.61,1.88,18.92.29,3.32.38,6.67.55,10l-4.19,6.1q-1.74-15.82-3.5-31.65Z" transform="translate(-208.76 -100.95)"/><path class="cls-2" d="M328.91,988.24l6.15,22.89q-1.05,6-2.09,12c-1.29-3.34-2.53-6.71-3.88-10-1.23-3-2.57-6-3.86-9,.1-3.7-.13-7.45.45-11.07C326,991.3,327.78,989.83,328.91,988.24Z" transform="translate(-208.76 -100.95)"/><path class="cls-2" d="M251.86,520.59c-.18,2.43.09,5.18-3.62,5.13L247.55,512l2.16-16,9.15-11.36c-.13,2.26-.27,4.51-.4,6.77a1.65,1.65,0,0,0-1.19,1.17l.11-.09C248.89,500.57,250.43,510.59,251.86,520.59Z" transform="translate(-208.76 -100.95)"/><path class="cls-2" d="M603.31,572l-8.23-5.23c-.31,0-.63,0-1-.06q-.11-3.82-.23-7.66c1.84,1.28,3.75,2.48,5.51,3.87,1.36,1.06,2.55,2.36,3.82,3.55l0,0Z" transform="translate(-208.76 -100.95)"/><path class="cls-3" d="M492.62,1000.38l0,29.55" transform="translate(-208.76 -100.95)"/><path class="cls-2" d="M238.92,563.39l-5.8,1.38,0-3.86-.09.15,2-3.79-.1.11,1.84-2-.06.08.89-3.18,3.17-.26q0,4.22-.1,8.43Z" transform="translate(-208.76 -100.95)"/><path class="cls-3" d="M351.3,873.3l3.93,16.37" transform="translate(-208.76 -100.95)"/><path class="cls-3" d="M571.61,455.46q3.51,8.27,7,16.52" transform="translate(-208.76 -100.95)"/><path class="cls-3" d="M551.55,357.54q1.65,8.46,3.29,16.93" transform="translate(-208.76 -100.95)"/><path class="cls-3" d="M339.91,1008.11l.09,19.1Z" transform="translate(-208.76 -100.95)"/><path class="cls-3" d="M351.42,579c.13,3.16.27,6.31.41,9.47" transform="translate(-208.76 -100.95)"/><path class="cls-3" d="M591.68,518.35" transform="translate(-208.76 -100.95)"/><path class="cls-4" d="M472.12,744.42q-.86,6.32-1.73,12.64" transform="translate(-208.76 -100.95)"/><path class="cls-2" d="M349.11,786.32l5.77-4.83,0,5.44-4.18,1Z" transform="translate(-208.76 -100.95)"/><path class="cls-3" d="M567.92,446.15l3.72,9.36Z" transform="translate(-208.76 -100.95)"/><path class="cls-2" d="M231.38,568.38c-.61,3.11-1.08,6.4-5.67,4.82.38-.94.75-1.89,1.12-2.83l2.67-2.06-.14.13Z" transform="translate(-208.76 -100.95)"/><path class="cls-2" d="M362.55,525.83l3.69-8.14C365.58,520.66,368.21,525.13,362.55,525.83Z" transform="translate(-208.76 -100.95)"/><path class="cls-3" d="M233.17,560.91" transform="translate(-208.76 -100.95)"/><path class="cls-3" d="M231.28,568.5l.1-.12-2,.06" transform="translate(-208.76 -100.95)"/><path class="cls-3" d="M288.75,323.17c-.36-1.12-.72-2.25-1.09-3.37" transform="translate(-208.76 -100.95)"/><path class="cls-3" d="M460.71,603.54l-4.11,7.53Z" transform="translate(-208.76 -100.95)"/><path class="cls-3" d="M240.73,560.44" transform="translate(-208.76 -100.95)"/><path class="cls-3" d="M240.83,552l-.16-.08a5.82,5.82,0,0,1,1.27.51" transform="translate(-208.76 -100.95)"/><path class="cls-3" d="M386.74,479.58l3.94-6.17Z" transform="translate(-208.76 -100.95)"/><path class="cls-3" d="M590.71,552.26c-.16-2-.31-4.06-.47-6.09l-.09.08" transform="translate(-208.76 -100.95)"/><path class="cls-3" d="M260.93,499.81l-1.87,7.56Z" transform="translate(-208.76 -100.95)"/><path class="cls-3" d="M588.4,540.59l-.1.08" transform="translate(-208.76 -100.95)"/><path class="cls-3" d="M590.15,546.25" transform="translate(-208.76 -100.95)"/><path class="cls-3" d="M566.06,440.63c.65,1.88,1.29,3.75,1.93,5.63C567.35,444.38,566.71,442.51,566.06,440.63Z" transform="translate(-208.76 -100.95)"/><path class="cls-2" d="M594,559.17l-2,.31.53-3.24,1,0Z" transform="translate(-208.76 -100.95)"/><path class="cls-3" d="M370.15,612.87" transform="translate(-208.76 -100.95)"/><path class="cls-3" d="M368.26,609.1" transform="translate(-208.76 -100.95)"/><path class="cls-3" d="M372,616.61" transform="translate(-208.76 -100.95)"/><path class="cls-3" d="M335,855.6c.63-1.26,1.26-2.53,1.88-3.79C336.22,853.07,335.59,854.34,335,855.6Z" transform="translate(-208.76 -100.95)"/><path class="cls-3" d="M514.39,237l-3.71-2Z" transform="translate(-208.76 -100.95)"/><path class="cls-3" d="M364.52,601.7" transform="translate(-208.76 -100.95)"/><path class="cls-2" d="M241.94,552.44a5.82,5.82,0,0,0-1.27-.51l.57-2.94.9.13Z" transform="translate(-208.76 -100.95)"/><path class="cls-3" d="M368.3,609.16" transform="translate(-208.76 -100.95)"/><path class="cls-3" d="M237.66,552.27c-.29,1.06-.59,2.12-.89,3.18l.69-3.11Z" transform="translate(-208.76 -100.95)"/><path class="cls-3" d="M516.33,238.82l-2.05-2Z" transform="translate(-208.76 -100.95)"/><path class="cls-3" d="M510.74,235l-1.9-1.88Z" transform="translate(-208.76 -100.95)"/><path class="cls-3" d="M508.88,233.13,507,231.26Z" transform="translate(-208.76 -100.95)"/><path class="cls-3" d="M241.12,545l1.25-.67.07.07" transform="translate(-208.76 -100.95)"/><path class="cls-3" d="M257.27,492.62" transform="translate(-208.76 -100.95)"/><path class="cls-3" d="M229.5,568.31l-2.67,2.06Z" transform="translate(-208.76 -100.95)"/><path class="cls-2" d="M605.16,574l-1.91-2Z" transform="translate(-208.76 -100.95)"/><path class="cls-1" d="M361,356.61l-.51,2.39-4.46.76q-.39-.3-.75-.63c.13-1.13.26-2.25.4-3.37,4.85-2.24,6-6.7,6.73-11.37l1.11-3.68c.61-2.62,1.14-5.2-2.73-5.64,3.11-13.69,10.69-24.1,23.9-31.11l-7.34-1,.45-6.84,26.62-1.84,2.49,13.85c-3.95.31-7.91.83-11.87.89-11.38.17-19.51,5.24-25.57,14.94-3.83,6.13-2.46,12.35-2.63,18.64l-.39,3.19Q363.73,351.22,361,356.61Z" transform="translate(-208.76 -100.95)"/><path class="cls-1" d="M373.46,295l-1.54,6.92-27.37-9.43c-3.87,10.47-11.85,14.27-21.95,14.85l13.8-7.72-.46-1.05L321,300.79l-.13-.89c7.08-3.65,13.87-8.23,21.36-10.61,4.56-1.45,10.27,0,15.31,1C363,291.36,368.17,293.37,373.46,295Z" transform="translate(-208.76 -100.95)"/><path class="cls-2" d="M380.41,250.85,354.1,249l.06-2c9.25-.86,18.53-4.05,27.64,2.17Z" transform="translate(-208.76 -100.95)"/><path class="cls-2" d="M402.61,261.81,385,246.25l1.43-1.54c6.22,4.78,14.31,7.33,17.48,15.77Z" transform="translate(-208.76 -100.95)"/><path class="cls-1" d="M306,336.35c3.67,7.35,3.3,15.13,1.53,23.11L305,337.22Q305.47,336.76,306,336.35Z" transform="translate(-208.76 -100.95)"/><path class="cls-1" d="M311.24,301.39c2.89,5.74,4.45,11.5,1.46,17.4l-2.11.07V302Z" transform="translate(-208.76 -100.95)"/><path class="cls-2" d="M352.76,265.67c3-.41,5.92-.83,8.88-1.22l18.88-2.5c.31.44.63.86,1,1.29-3.67,1.24-7.26,3.13-11,3.57-5.48.64-11.07.24-16.61.29Z" transform="translate(-208.76 -100.95)"/><path class="cls-2" d="M363.51,340.71l-1.11,3.68-6.86-1.46-2.38-.66c-1.17-1.85-5.14-3.71,0-5.55l.55.35,3.26,1.39,2.22,1.68Z" transform="translate(-208.76 -100.95)"/><path class="cls-1" d="M316.64,293.2l-2.43-14.78,2.15-.36,2.43,14.84Z" transform="translate(-208.76 -100.95)"/><path class="cls-1" d="M356,359.76l-6.58,5c-.42-.63-.83-1.27-1.24-1.9l5.49-3.73.79-.06.79.07Q355.63,359.46,356,359.76Z" transform="translate(-208.76 -100.95)"/><path class="cls-1" d="M353.64,344.51l-7.35,4.27-1.16-2.2,7.42-2.88A7.9,7.9,0,0,1,353.64,344.51Z" transform="translate(-208.76 -100.95)"/><path class="cls-2" d="M349.93,283.42l-5.5,2.95-.95-2.33,6.14-1Z" transform="translate(-208.76 -100.95)"/><path class="cls-2" d="M355.27,359.13l-.79-.07-.79.06-4-4.2.58-1.3,5.39,2.14C355.53,356.88,355.4,358,355.27,359.13Z" transform="translate(-208.76 -100.95)"/><path class="cls-1" d="M303.7,331.08l2.31,5.27q-.54.4-1.05.87l-2.13-5.07C303.11,331.78,303.4,331.42,303.7,331.08Z" transform="translate(-208.76 -100.95)"/><path class="cls-1" d="M300,330.79l-.06-3.71,3.78,4c-.3.34-.59.7-.87,1.07Z" transform="translate(-208.76 -100.95)"/><path class="cls-2" d="M349.47,268.11l3.29-2.44,1.1,1.43-3.9,1.52Z" transform="translate(-208.76 -100.95)"/><path class="cls-1" d="M313.13,271.66c.56,1.11,1.12,2.22,1.69,3.33l-1.17.67-1.58-2.92Z" transform="translate(-208.76 -100.95)"/><path class="cls-1" d="M311.62,269.46c.5.73,1,1.47,1.51,2.2l-1.06,1.08-1.63-2.09C310.83,270.25,311.22,269.85,311.62,269.46Z" transform="translate(-208.76 -100.95)"/><path class="cls-2" d="M381.8,249.22c.21.9.41,1.81.62,2.71l-2-1.08Z" transform="translate(-208.76 -100.95)"/><path class="cls-2" d="M347.6,352.79c-.16.1-.37.33-.56.31s-.33-.29-.5-.45c.2-.12.41-.36.59-.34S347.45,352.63,347.6,352.79Z" transform="translate(-208.76 -100.95)"/><path class="cls-1" d="M353.16,342.27l2.38.66-1.9,1.58a7.9,7.9,0,0,0-1.09-.81A2.82,2.82,0,0,1,353.16,342.27Z" transform="translate(-208.76 -100.95)"/><path class="cls-2" d="M350.67,787.9c-10.58,10.81-11.7,25.65-16.3,39,1.27-14.91.62-30.5,14.74-40.61Z" transform="translate(-208.76 -100.95)"/><path class="cls-1" d="M329.8,624.58q1.21-5.8,2.44-11.62l4.37-3.89.67.6Z" transform="translate(-208.76 -100.95)"/><path class="cls-1" d="M333,1035.14v17.1l-2.27-.12,2.35-16.92Z" transform="translate(-208.76 -100.95)"/><path class="cls-1" d="M321.68,1086.77l4-7.08-.1-.12q-1.52,4.1-3,8.21C322.3,1087.43,322,1087.09,321.68,1086.77Z" transform="translate(-208.76 -100.95)"/><path class="cls-1" d="M340.17,599.38l.55,3-1.61,3.5-.85-.66Q339.22,602.3,340.17,599.38Z" transform="translate(-208.76 -100.95)"/><path class="cls-1" d="M339.11,605.87l-1.83,3.8-.67-.6,1.65-3.86Z" transform="translate(-208.76 -100.95)"/><path class="cls-1" d="M325.7,1079.69c.31-.47.63-.94.94-1.42l-1,1.3Z" transform="translate(-208.76 -100.95)"/><path class="cls-3" d="M371.87,409.09l.84-1c0,.21,0,.48-.07.6" transform="translate(-208.76 -100.95)"/><path class="cls-1" d="M528.94,274.82l-5.38,1,2.24-4.36Z" transform="translate(-208.76 -100.95)"/><path class="cls-1" d="M492.11,615.58q-3.71-8.67-7.4-17.34l2-1.61,1.65,3.38,0-.06,2,5.63-.1-.13,1.73,4.47C492,611.81,492,613.69,492.11,615.58Z" transform="translate(-208.76 -100.95)"/><path class="cls-3" d="M488.36,600l-1.65-3.38Z" transform="translate(-208.76 -100.95)"/><path class="cls-3" d="M490.29,605.58l-2-5.63Z" transform="translate(-208.76 -100.95)"/><path class="cls-3" d="M491.92,609.92l-1.73-4.47Z" transform="translate(-208.76 -100.95)"/><path class="cls-3" d="M468.11,444.31" transform="translate(-208.76 -100.95)"/><path class="cls-3" d="M465.61,443.89" transform="translate(-208.76 -100.95)"/><path class="cls-3" d="M454.66,448.54l-.87-2" transform="translate(-208.76 -100.95)"/><path class="cls-3" d="M235.09,557.27l-2,3.79" transform="translate(-208.76 -100.95)"/><path class="cls-3" d="M236.83,555.37l-1.84,2Z" transform="translate(-208.76 -100.95)"/><path class="cls-2" d="M471.18,256.75q2-7.09,3.94-14.2l2.35.75q-2.7,7.09-5.38,14.2C471.79,257.24,471.49,257,471.18,256.75Z" transform="translate(-208.76 -100.95)"/><path class="cls-2" d="M477.9,239.46l3.45-2.35.84,1.38-3.63,2.07Z" transform="translate(-208.76 -100.95)"/><path class="cls-1" d="M503.39,914.68l3.71,6.2-2,.92q-1.25-3.28-2.47-6.57Z" transform="translate(-208.76 -100.95)"/><path class="cls-1" d="M329.3,919.23q-1.11,2-2.21,4l-1.22-.48,1.62-4.5Z" transform="translate(-208.76 -100.95)"/><path class="cls-1" d="M523.64,275.72l-1.92,3.81Z" transform="translate(-208.76 -100.95)"/><path class="cls-1" d="M225.81,592.54l-1.93-1.95Z" transform="translate(-208.76 -100.95)"/><path class="cls-1" d="M359,336.84l.21,3.3L357,338.46Z" transform="translate(-208.76 -100.95)"/><path class="cls-1" d="M360.85,335l-1.94,1.93Z" transform="translate(-208.76 -100.95)"/></svg>